<svg xmlns="http://www.w3.org/2000/svg" width="144" height="144" xmlns:xlink="http://www.w3.org/1999/xlink"><g transform="translate(-90.4 -27.532) scale(1.27854)"><defs><path id="a" d="M178.374 77.707c0 28.316-23.036 51.354-51.356 51.354-28.312 0-51.348-23.03-51.348-51.35s23.036-51.35 51.348-51.35c28.32 0 51.356 23.04 51.356 51.35z"/></defs><clipPath id="b"><use width="250" height="200" xlink:href="#a" overflow="visible"/></clipPath><g clip-path="url(#b)"><path fill="#d5d7d8" d="M147.982 154.04c-1.8-8.284-12.262-27.038-16.23-34.968-3.964-7.93-7.938-19.11-6.128-26.322.327-1.312-3.436-11.307-2.354-12.014 8.416-5.49 10.632.598 14-1.863 1.737-1.273 4.09 1.047 4.692-1.06 2.158-7.567-3.006-20.76-8.77-26.526-1.885-1.88-4.77-3.06-8.03-3.686-1.253-1.71-3.274-3.36-6.137-4.87-3.188-1.69-10.12-3.94-13.717-4.53-2.492-.41-3.055.29-4.12.46.993.09 5.7 2.42 6.616 2.55-.916.62-3.607-.03-5.324.74-.865.39-1.512 1.88-1.506 2.58 4.91-.49 12.574-.01 17.1 2-3.602.41-9.08.87-11.436 2.11-6.848 3.61-9.873 12.037-8.07 22.135 1.804 10.075 9.738 46.85 12.262 59.13 2.525 12.26-5.408 20.188-10.455 22.353l5.408.365-1.8 3.97c6.483.72 13.694-1.44 13.694-1.44-1.438 3.965-11.176 5.41-11.176 5.41s4.7 1.44 12.26-1.445c7.58-2.883 12.27-4.69 12.27-4.69l3.61 9.374 6.86-6.85 2.887 7.21c.008 0 5.418-1.804 3.615-10.1z"/><path fill="#fff" d="M150.16 152.36c-1.795-8.29-12.256-27.044-16.227-34.98-3.97-7.934-7.936-19.11-6.13-26.32.335-1.31.34-6.668 1.43-7.38 8.41-5.493 7.81-.183 11.185-2.644 1.74-1.27 3.133-2.805 3.738-4.912 2.164-7.572-3.006-20.76-8.773-26.53-1.88-1.878-4.768-3.06-8.025-3.685-1.252-1.72-3.27-3.37-6.13-4.89-5.39-2.87-12.073-4.01-18.265-2.89.99.09 3.256 2.133 4.168 2.27-1.38.935-5.05.815-5.02 2.895 4.92-.49 10.31.285 14.84 2.297-3.6.41-6.95 1.3-9.31 2.543-6.85 3.607-8.652 10.817-6.85 20.92 1.808 10.097 9.743 46.87 12.257 59.127 2.528 12.26-5.4 20.19-10.45 22.353l5.41.36-1.8 3.973c6.483.72 13.694-1.44 13.694-1.44-1.44 3.97-11.176 5.402-11.176 5.402s4.687 1.44 12.26-1.445c7.58-2.884 12.27-4.69 12.27-4.69l3.604 9.37 6.855-6.852 2.89 7.215c-.013.008 5.39-1.8 3.583-10.09z"/><path fill="#2d4f8e" d="M108.71 69.574c0-2.092 1.694-3.787 3.79-3.787 2.09 0 3.785 1.695 3.785 3.787 0 2.094-1.695 3.787-3.785 3.787-2.096 0-3.79-1.69-3.79-3.78z"/><path fill="#fff" d="M113.197 68.312c0-.545.44-.984.98-.984.543 0 .984.44.984.984 0 .543-.44.984-.98.984s-.98-.44-.98-.984z"/><path fill="#2d4f8e" d="M134.557 67.328c0-1.793 1.46-3.25 3.252-3.25 1.8 0 3.25 1.457 3.25 3.25 0 1.8-1.46 3.258-3.26 3.258-1.79 0-3.26-1.457-3.26-3.258z"/><path fill="#fff" d="M138.414 66.246c0-.463.38-.842.838-.842.477 0 .844.38.844.842 0 .47-.367.842-.844.842-.46 0-.838-.373-.838-.842z"/><linearGradient id="c" x1="1107.009" x2="1115.576" y1="1626.863" y2="1626.863" gradientUnits="userSpaceOnUse" gradientTransform="translate(-1002 -1567)"><stop offset=".006" stop-color="#6176B9"/><stop offset=".691" stop-color="#394A9F"/></linearGradient><path fill="url(#c)" d="M113.576 58.6s-2.854-1.29-5.63.454c-2.77 1.742-2.667 3.523-2.667 3.523s-1.48-3.283 2.45-4.89c3.93-1.61 5.84.914 5.84.914z"/><linearGradient id="d" x1="1133.963" x2="1141.768" y1="1624.254" y2="1624.254" gradientUnits="userSpaceOnUse" gradientTransform="translate(-1002 -1567)"><stop offset=".006" stop-color="#6176B9"/><stop offset=".691" stop-color="#394A9F"/></linearGradient><path fill="url(#d)" d="M139.768 58.34s-2.05-1.17-3.643-1.15c-3.268.042-4.162 1.487-4.162 1.487s.55-3.445 4.734-2.754c2.266.377 3.07 2.418 3.07 2.418z"/></g></g><path fill="#fdd20a" d="M68.254 80.093c.485-2.93 8.054-8.47 13.412-8.805 5.37-.338 7.045-.262 11.52-1.334 4.485-1.07 16.026-3.948 19.22-5.423 3.2-1.47 16.75.74 7.2 6.06-4.135 2.32-15.273 6.56-23.234 8.94-7.952 2.38-12.772-2.27-15.418 1.64-2.105 3.11-.427 7.37 9.075 8.25 12.83 1.19 25.13-5.77 26.49-2.07 1.36 3.7-11.03 8.32-18.58 8.47-7.53.146-22.73-4.98-25-6.564-2.28-1.584-5.33-5.28-4.69-9.14z"/><path fill="#65bc46" d="M74.06 120.108s-18.026-9.616-18.32-5.715c-.305 3.907 0 19.828 2.1 21.033 2.105 1.2 17.126-7.81 17.126-7.81l-.905-7.508zm6.908-.606s12.318-9.315 15.028-8.714c2.7.613 3.3 19.83.896 20.747-2.405.886-16.504-4.876-16.504-4.876l.58-7.16z"/><path fill="#43a244" d="M69.696 121.125c0 6.305-.906 9.013 1.803 9.61 2.7.606 7.8 0 9.61-1.198 1.8-1.2.29-9.31-.3-10.823-.61-1.497-11.12-.292-11.12 2.41z"/><path fill="#65bc46" d="M70.842 119.724c0 6.307-.904 9.014 1.802 9.613 2.693.61 7.805 0 9.612-1.2 1.803-1.202.297-9.305-.304-10.823-.602-1.498-11.11-.292-11.11 2.41z"/><circle cx="127.021" cy="77.848" r="53" fill="none" stroke="#fff" stroke-width="3.5" stroke-miterlimit="10" transform="translate(-90.4 -27.532) scale(1.27854)"/></svg>
